# xmcd
#
# Track frame offsets:
# 150
# 11183
# 35123
# 47435
# 54641
# 67625
# 85636
# 104112
# 118413
# 139075
# 143646
# 149459
# 156518
# 170897
# 182345
# 194293
# 203964
# 216960
# 234687
# 235326
# 243606
# 256075
# 275765
# 289672
# 305477
# 315687
#
# Disc length: 4461 seconds
#
#
# Revision: 0
# Processed by: cddbd v1.5.2PL0 Copyright (c) Steve Scherf et al.
# Submitted via: FreeRIP 2.943 
#
DISCID=95116b1a
DTITLE=Various Artist - mt6 records 2007 sampler (baltimore, maryland)
DYEAR=2007
DGENRE=Polsk Punk
TTITLE0=human host - mold lungs
TTITLE1=social junk - stoner car
TTITLE2=the agrarians - the lusty summer
TTITLE3=abiku - dance o rama
TTITLE4=needlegun - circless
TTITLE5=newagehillbilly - control factor
TTITLE6=bad liquor pond - autopilot
TTITLE7=fuzz unlimited - camera shy
TTITLE8=myo - some things i've lost, some things i've gained
TTITLE9=blakk sweat - the crys of nitocrys
TTITLE10=pokawa khan - walk the streets
TTITLE11=heirs of rockefeller - scene from stress
TTITLE12=the dirt - deathwish baby
TTITLE13=heroin uk - big nose
TTITLE14=bo lee da - skitzo
TTITLE15=a- torture mechanism - necropolis
TTITLE16=forest dwellers - cat and dog, cats and walruses
TTITLE17=tadpole angel - rat soup
TTITLE18=the new flesh - bass
TTITLE19=hex screw - pynx waltz
TTITLE20=mother orchid - cimmerian darkness
TTITLE21=the wire orchestra - document 5
TTITLE22=pat grant and the blown fuses - struggle
TTITLE23=ussa pleasuredome - keys to iraq
TTITLE24=retarded garfield - tim is on my side
TTITLE25=dr. tuborg - spirals
EXTD=
EXTT0=
EXTT1=
EXTT2=
EXTT3=
EXTT4=
EXTT5=
EXTT6=
EXTT7=
EXTT8=
EXTT9=
EXTT10=
EXTT11=
EXTT12=
EXTT13=
EXTT14=
EXTT15=
EXTT16=
EXTT17=
EXTT18=
EXTT19=
EXTT20=
EXTT21=
EXTT22=
EXTT23=
EXTT24=
EXTT25=
PLAYORDER=
